<?xml version="1.0" encoding="UTF-8"?>
<svg version="1.1" xmlns="http://www.w3.org/2000/svg" width="600" height="600">
<path d="M0 0 C198 0 396 0 600 0 C600 198 600 396 600 600 C402 600 204 600 0 600 C0 402 0 204 0 0 Z " fill="#FEFEFE" transform="translate(0,0)"/>
<path d="M0 0 C11.00574063 -0.04651739 22.01145753 -0.08196728 33.01727676 -0.10362434 C38.12874089 -0.11402315 43.24013732 -0.12811041 48.3515625 -0.15087891 C53.29232185 -0.17274729 58.23301644 -0.18459791 63.1738205 -0.18975449 C65.05068734 -0.19342527 66.92755098 -0.20059277 68.80438995 -0.21146011 C82.32733408 -0.28658569 94.77893586 0.31937181 107.5625 5.1875 C108.38041016 5.49719727 109.19832031 5.80689453 110.04101562 6.12597656 C126.92231264 12.73257456 139.86766743 24.62333856 147.46484375 41.1953125 C152.25541202 52.94261903 153.36844929 64.00364011 153.3125 76.625 C153.30926727 77.61861038 153.30926727 77.61861038 153.30596924 78.6322937 C153.25154914 89.07230281 152.62076709 98.87013475 150 109 C149.70198486 110.20994629 149.70198486 110.20994629 149.39794922 111.44433594 C141.980274 141.14837466 127.94619707 167.84027254 101.0078125 184.2734375 C70.03778319 202.05103874 36.43922916 201.59844228 1.74328613 201.2746582 C-3.2055765 201.23302089 -8.15452666 201.21532025 -13.10351562 201.1953125 C-22.73589934 201.15298977 -32.36790585 201.08513684 -42 201 C-41.02651326 190.45586873 -41.02651326 190.45586873 -40.0546875 185.93359375 C-39.8688208 185.05501709 -39.6829541 184.17644043 -39.49145508 183.27124023 C-39.2880249 182.33610596 -39.08459473 181.40097168 -38.875 180.4375 C-38.65545654 179.40633057 -38.43591309 178.37516113 -38.2097168 177.31274414 C-37.72938523 175.05829272 -37.24679478 172.80432165 -36.76220703 170.55078125 C-35.98967889 166.95191858 -35.22595659 163.3512932 -34.46484375 159.75 C-32.0655392 148.40158604 -29.65369935 137.05586429 -27.22987366 125.71266174 C-26.17315144 120.76697307 -25.11757848 115.82103957 -24.0625 110.875 C-23.84949249 109.87665131 -23.63648499 108.87830261 -23.41702271 107.84970093 C-20.29093341 93.18701895 -17.24458165 78.50978164 -14.25527954 63.81866455 C-11.74214077 51.4789255 -9.08823921 39.1791637 -6.31640625 26.89453125 C-4.86846898 20.46358367 -3.51417337 14.01408523 -2.20410156 7.55371094 C-1.10547779 2.21095557 -1.10547779 2.21095557 0 0 Z " fill="#010101" transform="translate(357,207)"/>
<path d="M0 0 C6.71492417 6.15905296 12.99516039 15.25910301 13.75561523 24.60424805 C14.23196887 39.25707238 14.43864364 51.87626189 7.546875 65.0390625 C7.10214844 65.95042969 6.65742188 66.86179687 6.19921875 67.80078125 C-8.16325361 94.4739442 -40.58665743 110.05891499 -65.45001221 125.0569458 C-67.76282712 126.4537427 -70.0717285 127.85694063 -72.38037109 129.26062012 C-74.01924756 130.25339652 -75.66382473 131.23674338 -77.30859375 132.21972656 C-89.0248251 139.34257935 -96.16667448 144.46616147 -102.453125 157.0390625 C-72.753125 157.0390625 -43.053125 157.0390625 -12.453125 157.0390625 C-13.57923871 167.17408592 -13.57923871 167.17408592 -14.609375 171.87890625 C-14.82722656 172.87857422 -15.04507813 173.87824219 -15.26953125 174.90820312 C-15.49511719 175.92076172 -15.72070312 176.93332031 -15.953125 177.9765625 C-16.17871094 179.01619141 -16.40429688 180.05582031 -16.63671875 181.12695312 C-18.31662856 188.76606961 -18.31662856 188.76606961 -19.453125 191.0390625 C-63.343125 191.0390625 -107.233125 191.0390625 -152.453125 191.0390625 C-143.68754636 147.21116932 -143.68754636 147.21116932 -129.453125 130.0390625 C-128.77636719 129.19988281 -128.09960938 128.36070312 -127.40234375 127.49609375 C-113.06051044 110.58479122 -92.02638189 100.19143572 -73.078125 89.3515625 C-43.44058644 73.02729167 -43.44058644 73.02729167 -26.453125 45.0390625 C-25.56960965 39.05079179 -25.90794382 34.12048885 -29.453125 29.0390625 C-37.73387618 21.11834398 -45.40450334 21.51954588 -56.265625 21.73046875 C-62.28040907 21.98931928 -67.1575401 23.12949478 -72.453125 26.0390625 C-73.38253906 26.54824219 -74.31195313 27.05742187 -75.26953125 27.58203125 C-83.39230683 32.41149101 -89.79113212 38.48973866 -95.453125 46.0390625 C-98.19117199 45.97265464 -99.95024779 45.4904803 -102.00390625 43.64697266 C-103.71182656 41.75776762 -105.34173881 39.8237347 -106.953125 37.8515625 C-107.78650391 36.8605957 -107.78650391 36.8605957 -108.63671875 35.84960938 C-109.73242748 34.54378239 -110.82138569 33.23225742 -111.90307617 31.91479492 C-112.90943744 30.69698525 -113.92979034 29.49055507 -114.96606445 28.2980957 C-118.43342004 24.29522699 -118.43342004 24.29522699 -118.640625 21.6015625 C-112.11496985 7.51988559 -94.35634734 -2.71582573 -80.54101562 -8.19726562 C-55.57860021 -17.32757847 -21.51699567 -17.19989145 0 0 Z " fill="#020202" transform="translate(226.453125,216.9609375)"/>
<path d="M0 0 C5.22455543 -0.10066581 10.44851777 -0.17229274 15.67382812 -0.21972656 C17.44248311 -0.2395488 19.21107529 -0.26661492 20.97949219 -0.30175781 C36.15951912 -0.59534195 53.20607211 -0.27345109 66 9 C67.051875 9.721875 68.10375 10.44375 69.1875 11.1875 C79.09660951 21.09660951 81.26307894 33.39683787 81.5 46.9375 C81.38886786 71.55326947 72.63118964 97.47615178 55.875 115.75 C42.03426555 128.85477773 23.69860371 134.20746547 5.03125 134.09765625 C3.64987854 134.09553383 3.64987854 134.09553383 2.24060059 134.09336853 C-0.67296734 134.08781407 -3.58645568 134.07527025 -6.5 134.0625 C-8.48697805 134.05747911 -10.47395731 134.05291723 -12.4609375 134.04882812 C-17.30732188 134.0378596 -22.15364749 134.02062683 -27 134 C-27.28096673 128.0533745 -26.22994462 122.89411812 -24.8203125 117.1328125 C-22.89275992 108.96371035 -21.08946351 100.7824823 -19.4296875 92.5546875 C-19.21910706 91.51395081 -19.00852661 90.47321411 -18.79156494 89.40093994 C-17.93248196 85.14522678 -17.07840485 80.88851462 -16.22412109 76.63183594 C-11.93917856 55.3133615 -11.93917856 55.3133615 -9.57714844 46.26220703 C-8.79551448 43.19849287 -8.22740189 40.1145361 -7.6875 37 C-5.46793323 24.59982857 -2.67361933 12.30824852 0 0 Z " fill="#FDFDFD" transform="translate(389,240)"/>
</svg>
