<?xml version="1.0" encoding="UTF-8"?>
<svg version="1.1" xmlns="http://www.w3.org/2000/svg" width="600" height="600">
<path d="M0 0 C198 0 396 0 600 0 C600 198 600 396 600 600 C402 600 204 600 0 600 C0 402 0 204 0 0 Z " fill="#FEFEFE" transform="translate(0,0)"/>
<path d="M0 0 C10.71986271 -0.09351168 21.4396252 -0.16417038 32.15981579 -0.20724869 C37.13997702 -0.22794512 42.11985515 -0.25592581 47.09985352 -0.30175781 C51.92396556 -0.34586706 56.74780886 -0.36927114 61.57210732 -0.37950897 C63.3941196 -0.38678562 65.21612058 -0.4009864 67.03801537 -0.42292023 C76.95838916 -0.53738056 86.44652329 -0.03647532 96.21606445 1.79003906 C97.48350258 2.02631327 97.48350258 2.02631327 98.77654552 2.26736069 C111.61669632 4.9059406 123.52406463 10.90657945 133 20 C134.03833984 20.99580078 134.03833984 20.99580078 135.09765625 22.01171875 C149.22131259 36.73406572 154.18338628 54.89829082 154.24023438 74.87329102 C154.24982727 76.90098931 154.28084804 78.92762184 154.3125 80.95507812 C154.38937487 90.3391711 153.21521117 98.84366338 151 108 C150.77022461 108.95237549 150.54044922 109.90475098 150.30371094 110.88598633 C142.97627656 139.72899108 129.42143331 166.81660781 103.625 183.3125 C97.00339938 187.19166099 90.14355883 190.20684378 83 193 C82.390354 193.25040039 81.78070801 193.50080078 81.15258789 193.75878906 C75.88932219 195.85486732 70.61891363 197.06703853 65.0625 198.125 C64.22009766 198.29386719 63.37769531 198.46273437 62.50976562 198.63671875 C53.96397984 200.3077192 45.60741683 201.15312658 36.90014648 201.11352539 C35.61070381 201.11374443 35.61070381 201.11374443 34.29521179 201.1139679 C31.48714571 201.11327778 28.67914808 201.10552811 25.87109375 201.09765625 C23.91097551 201.09578886 21.95085679 201.09436647 19.99073792 201.09336853 C14.85666594 201.08956862 9.72262271 201.07976014 4.58856201 201.06866455 C-0.66035575 201.05839588 -5.90927819 201.05385926 -11.15820312 201.04882812 C-21.43881464 201.0381354 -31.71940492 201.02108963 -42 201 C-41.52620492 198.46732055 -41.05212314 195.93469532 -40.57788086 193.40209961 C-40.44523582 192.69288109 -40.31259079 191.98366257 -40.17592621 191.25295258 C-39.00756044 185.01558384 -37.80304326 178.78594258 -36.5625 172.5625 C-36.34932129 171.49265869 -36.13614258 170.42281738 -35.91650391 169.32055664 C-34.53787913 162.47729356 -33.02866958 155.68112121 -31.37915039 148.89868164 C-30.11151152 143.63434289 -29.10068916 138.34581387 -28.14404297 133.01733398 C-27.0187929 126.85723352 -25.56917819 120.79568538 -24.0625 114.71875 C-23.10942994 110.68496538 -22.35937813 106.61892797 -21.61328125 102.54296875 C-20.16697513 94.67174913 -18.46679073 86.87115613 -16.69793701 79.06692505 C-13.49542973 64.92254981 -10.44539186 50.75332041 -7.54370117 36.54418945 C-5.98180472 28.9005469 -4.40263017 21.26053126 -2.8203125 13.62109375 C-2.54433639 12.28804852 -2.26837604 10.95500003 -1.99243164 9.62194824 C-1.3284416 6.41460028 -0.66429574 3.20728466 0 0 Z " fill="#010101" transform="translate(361,207)"/>
<path d="M0 0 C1.85625 -0.02416992 1.85625 -0.02416992 3.75 -0.04882812 C19.85636651 -0.05730516 35.5700355 4.22690378 47.625 15.3125 C56.30238799 24.18710135 58.88932289 33.74397408 58.87158203 45.75073242 C58.77895733 51.72756342 58.01195451 56.78814694 55.625 62.3125 C55.2228125 63.27542969 54.820625 64.23835938 54.40625 65.23046875 C49.18554222 76.67251997 40.96303286 86.57444423 29.05859375 91.33984375 C26.92599484 92.06405966 24.7991443 92.7265604 22.625 93.3125 C23.87582742 97.06498225 24.99325387 97.3640262 28.375 99.25 C29.2825 99.77980469 30.19 100.30960937 31.125 100.85546875 C31.95 101.33628906 32.775 101.81710937 33.625 102.3125 C40.44542276 106.65276903 44.87932668 114.92452128 47.15625 122.58203125 C50.59804534 142.63048912 44.1474129 163.87445889 32.625 180.3125 C18.72642989 197.20159137 -2.14426684 204.8686746 -23.375 207.3125 C-45.39073442 208.44353534 -66.52814446 206.7920787 -83.9375 191.9375 C-94.30928749 181.70469794 -100.75604327 168.82663529 -102.375 154.3125 C-98.11970589 152.30101759 -93.85607967 150.3088908 -89.58300781 148.33544922 C-88.11165064 147.6537833 -86.64223585 146.96790896 -85.17480469 146.27783203 C-83.03913742 145.27593175 -80.89579664 144.29248393 -78.75 143.3125 C-78.08806641 142.99788818 -77.42613281 142.68327637 -76.74414062 142.35913086 C-72.89197004 140.62476695 -70.43505494 139.94359259 -66.375 141.3125 C-66.15585938 142.13492188 -65.93671875 142.95734375 -65.7109375 143.8046875 C-62.67854222 154.47970501 -59.45973218 163.04703431 -49.81640625 169.15625 C-39.87290665 173.86549141 -27.26648035 173.87955507 -16.8125 170.6875 C-6.88535267 166.82543172 -0.10527346 160.38024075 4.4375 150.8125 C7.43777635 143.22189547 8.49109522 134.72327053 5.25 127.0625 C1.63537633 120.94544455 -3.37889336 118.46447262 -9.87548828 116.16845703 C-17.13703272 114.3923321 -24.62364441 114.62555979 -32.0625 114.5625 C-33.74677472 114.53428552 -35.43102154 114.50435062 -37.11523438 114.47265625 C-41.20177195 114.3994463 -45.28798057 114.34947795 -49.375 114.3125 C-48.8259414 107.52151208 -47.83010164 100.96589951 -46.375 94.3125 C-46.19710937 93.46816406 -46.01921875 92.62382812 -45.8359375 91.75390625 C-44.51488095 85.5922619 -44.51488095 85.5922619 -43.375 83.3125 C-42.40788086 83.3031543 -41.44076172 83.29380859 -40.44433594 83.28417969 C-36.798388 83.24380007 -33.15324218 83.17791914 -29.5078125 83.10498047 C-27.94086136 83.07704507 -26.37377649 83.05569659 -24.80664062 83.04150391 C-12.78562224 82.92621281 -0.86981097 82.19042986 8.87109375 74.21875 C15.2668831 67.26742438 18.04185685 58.95712336 17.90234375 49.65625 C17.25747617 44.20666482 14.95880512 40.43882432 10.8125 36.9375 C0.80539584 31.83583906 -10.18204469 32.00561317 -20.82421875 35.34765625 C-31.73965093 39.47646444 -40.30755557 47.12482224 -47.375 56.3125 C-50.59979606 56.00707393 -52.05595167 55.62730772 -54.39550781 53.31884766 C-55.03327148 52.46339355 -55.67103516 51.60793945 -56.328125 50.7265625 C-57.029375 49.79585937 -57.730625 48.86515625 -58.453125 47.90625 C-59.16984375 46.9265625 -59.8865625 45.946875 -60.625 44.9375 C-61.3571875 43.96554688 -62.089375 42.99359375 -62.84375 41.9921875 C-68.21606445 34.78930664 -68.21606445 34.78930664 -69.375 31.3125 C-67.4669064 28.30358317 -64.86253938 25.8502466 -62.375 23.3125 C-61.74464844 22.65765625 -61.11429688 22.0028125 -60.46484375 21.328125 C-50.55383892 11.77995079 -37.70949685 5.39830083 -24.375 2.3125 C-23.68164551 2.13807373 -22.98829102 1.96364746 -22.27392578 1.78393555 C-14.85547948 0.07333089 -7.58799558 -0.01963767 0 0 Z " fill="#020202" transform="translate(179.375,203.6875)"/>
<path d="M0 0 C5.33445924 -0.04994812 10.66877825 -0.08597541 16.00341797 -0.10986328 C17.81301245 -0.11983616 19.62259118 -0.13341932 21.43212891 -0.15087891 C39.80015489 -0.32349164 56.93043939 0.11893303 70.875 13.68359375 C80.45264847 24.12393482 81.88258968 36.39284997 81.48046875 50.109375 C79.99544468 74.71834533 70.36517416 101.27251296 52.5 118.625 C48.77514217 121.70839503 44.71324445 123.9703329 40.4375 126.1875 C39.83164062 126.5086377 39.22578125 126.82977539 38.6015625 127.16064453 C23.89438697 134.40565081 9.60373954 134.51957929 -6.4375 134.25 C-8.53709218 134.22988803 -10.63670314 134.21164564 -12.73632812 134.1953125 C-17.82469171 134.15172689 -22.91213237 134.08296303 -28 134 C-25.85163785 122.28099376 -23.53654066 110.60024 -21.14819336 98.92797852 C-20.56411135 96.07038345 -19.98412191 93.21197709 -19.40429688 90.35351562 C-17.53673251 81.19013826 -15.58357227 72.06249365 -13.40074158 62.96894836 C-11.90525297 56.70229725 -10.64062176 50.398484 -9.4083252 44.07495117 C-8.11430095 37.49921902 -6.75395855 30.93640805 -5.41064453 24.37060547 C-5.0491893 22.60220965 -4.6885307 20.83365085 -4.32861328 19.06494141 C-3.80157734 16.47522035 -3.27215531 13.88599745 -2.7421875 11.296875 C-2.58176971 10.50633728 -2.42135193 9.71579956 -2.256073 8.90130615 C-1.63282094 5.86738105 -0.98049852 2.94149557 0 0 Z " fill="#FDFDFD" transform="translate(394,240)"/>
</svg>
