<?xml version="1.0" encoding="UTF-8"?>
<svg version="1.1" xmlns="http://www.w3.org/2000/svg" width="600" height="600">
<path d="M0 0 C198 0 396 0 600 0 C600 198 600 396 600 600 C402 600 204 600 0 600 C0 402 0 204 0 0 Z " fill="#FEFEFE" transform="translate(0,0)"/>
<path d="M0 0 C0.74765625 -0.03738281 1.4953125 -0.07476562 2.265625 -0.11328125 C8.51884113 0.95841774 13.17460397 6.45289347 17.46308899 10.77835083 C18.11271125 11.42555867 18.7623335 12.07276651 19.43164128 12.73958671 C21.59893174 14.90125841 23.75902286 17.06998069 25.91918945 19.23876953 C27.47466049 20.79316727 29.03056447 22.34713186 30.58686829 23.9006958 C34.8059117 28.11489679 39.01868673 32.33531316 43.23022866 36.55700922 C47.63605418 40.9716206 52.04715325 45.38095679 56.45756531 49.79098511 C63.85932071 57.19367662 71.25722229 64.60020274 78.65258789 72.00927734 C86.26451607 79.63530867 93.87995342 87.25781288 101.49926758 94.87646484 C101.96907114 95.34622844 102.43887469 95.81599205 102.92291472 96.29999091 C103.39190313 96.76893896 103.86089154 97.23788701 104.34409171 97.72104561 C112.57985408 105.95615361 120.812715 114.19415614 129.04399681 122.43374252 C132.55078042 125.94406333 136.05841799 129.45352757 139.5667057 132.96234512 C143.69190975 137.08855075 147.81456436 141.21728685 151.93522453 145.34803009 C153.45135573 146.86709147 154.96834354 148.38529843 156.48622894 149.90260696 C158.55041803 151.96630823 160.6115241 154.0330387 162.67182922 156.10061646 C163.27959349 156.70683212 163.88735777 157.31304779 164.51353914 157.93763363 C168.48903771 161.93649569 169.8696152 163.64980096 169.90390015 169.23551941 C169.91250061 170.27677475 169.92110107 171.31803009 169.92996216 172.39083862 C169.93635208 174.11199387 169.93635208 174.11199387 169.94287109 175.86791992 C169.95104858 177.07306747 169.95922607 178.27821503 169.96765137 179.5198822 C169.99255671 183.52757433 170.00919703 187.53522847 170.0234375 191.54296875 C170.02879915 192.92634907 170.03417666 194.30972932 170.03956985 195.69310951 C170.06121609 201.45695052 170.07994391 207.22078874 170.09119225 212.98466015 C170.10736714 221.21746117 170.14036558 229.44978531 170.19759309 237.6824066 C170.23652115 243.48305775 170.25585262 249.28358271 170.26111281 255.0843609 C170.26473978 258.54078877 170.27646978 261.99670841 170.30921555 265.45299339 C170.4901726 285.54517454 170.09362221 302.06510584 155.72265625 317.48828125 C141.71579543 330.9379071 126.09508278 331.61932562 107.8359375 331.5078125 C106.21785622 331.50486629 104.59977303 331.50282941 102.98168945 331.50170898 C97.02943028 331.49128866 91.0772121 331.46336624 85.125 331.4375 C71.80125 331.39625 58.4775 331.355 44.75 331.3125 C44.75 291.7125 44.75 252.1125 44.75 211.3125 C15.71 211.3125 -13.33 211.3125 -43.25 211.3125 C-43.25 250.9125 -43.25 290.5125 -43.25 331.3125 C-56.841875 331.395 -70.43375 331.4775 -84.4375 331.5625 C-90.83805786 331.61712402 -90.83805786 331.61712402 -97.36791992 331.67285156 C-102.64123535 331.69091797 -102.64123535 331.69091797 -105.12202454 331.6942749 C-106.82816256 331.70035496 -108.5342851 331.71429164 -110.24031067 331.73480225 C-127.09138682 331.92699154 -141.60452972 329.64669055 -154.4375 317.625 C-165.32697532 306.03013357 -168.69874914 294.16110978 -168.70166016 278.5324707 C-168.71334229 277.30501129 -168.72502441 276.07755188 -168.73706055 274.81289673 C-168.76469612 271.48030955 -168.77894603 268.14828174 -168.78470278 264.81562448 C-168.78908378 262.72814005 -168.79747751 260.64070961 -168.80720139 258.55324364 C-168.84082262 251.25608897 -168.85806972 243.95909455 -168.86083984 236.66186523 C-168.86388089 229.88074403 -168.904435 223.10053032 -168.96198809 216.31967288 C-169.00983507 210.47475345 -169.03057197 204.63013355 -169.03063047 198.78501958 C-169.03116682 195.30364917 -169.04259333 191.82317289 -169.08180618 188.34200478 C-169.12448562 184.46242833 -169.11082718 180.58413529 -169.09228516 176.7043457 C-169.11273895 175.56284561 -169.13319275 174.42134552 -169.15426636 173.24525452 C-169.14030823 172.1815564 -169.1263501 171.11785828 -169.11196899 170.02192688 C-169.11452509 169.10704656 -169.11708118 168.19216623 -169.11971474 167.24956226 C-167.7487603 162.61979303 -164.56212216 159.72809563 -161.25 156.3125 C-160.70053113 155.73806339 -160.15106226 155.16362678 -159.58494282 154.57178301 C-157.9193918 152.85436379 -156.23220143 151.16121404 -154.53727722 149.47279358 C-153.89975676 148.83371313 -153.26223631 148.19463268 -152.60539705 147.53618616 C-150.49213645 145.41897199 -148.37536184 143.30530843 -146.25854492 141.19165039 C-144.73347638 139.66522539 -143.20862035 138.13858805 -141.68395996 136.61175537 C-137.56067125 132.48392385 -133.4342452 128.35924223 -129.30709624 124.23527074 C-124.98637824 119.91708987 -120.66810663 115.59646367 -116.34944153 111.27622986 C-109.10430594 104.02927771 -101.85707015 96.78443087 -94.60864258 89.54077148 C-86.22070528 81.15828814 -77.83639316 72.77219176 -69.45393103 64.38423353 C-62.25565636 57.18142781 -55.05544351 49.98056392 -47.85359269 42.78133386 C-43.55231453 38.48161693 -39.25172021 34.18122186 -34.95287132 29.879076 C-30.91762833 25.84095401 -26.87996545 21.80526764 -22.84038544 17.77148438 C-21.35518054 16.28760639 -19.87083457 14.80286816 -18.38739204 13.31722832 C-16.36982408 11.29694649 -14.34923162 9.27974035 -12.32780457 7.26332092 C-11.43905987 6.37123014 -11.43905987 6.37123014 -10.53236073 5.46111733 C-6.93322377 1.87937434 -5.07237631 0.16390332 0 0 Z " fill="#000000" transform="translate(299.25,186.6875)"/>
<path d="M0 0 C13.1978175 10.39638808 24.85519294 22.60483337 36.71435547 34.46655273 C39.21766316 36.96996364 41.7278806 39.46632799 44.23973465 41.96115971 C46.64865998 44.35636587 49.05045508 46.75867531 51.453125 49.16015625 C52.35605286 50.05589859 53.25898071 50.95164093 54.18927002 51.87452698 C55.01143005 52.69976364 55.83359009 53.52500031 56.68066406 54.37524414 C57.40835999 55.10151505 58.13605591 55.82778595 58.88580322 56.57606506 C60.4375 58.375 60.4375 58.375 60.4375 60.375 C61.0975 60.375 61.7575 60.375 62.4375 60.375 C62.39036865 58.81773193 62.39036865 58.81773193 62.34228516 57.22900391 C62.23272567 53.33414411 62.16446076 49.43941692 62.10791016 45.54345703 C62.07795219 43.86548879 62.03716958 42.18767424 61.98486328 40.51025391 C61.43380449 22.36853404 61.43380449 22.36853404 68.4375 14.375 C74.33820738 8.1448115 80.74148009 5.46762585 89.25 4.9375 C97.54596314 5.11427851 104.63745714 9.7164216 110.4375 15.375 C112.1875 17.875 112.1875 17.875 113.4375 20.375 C113.79063263 21.07305756 114.14376526 21.77111511 114.50759888 22.49032593 C115.75331557 26.35470092 115.64895446 30.01878464 115.56591797 34.02978516 C115.54679284 35.81360803 115.52774321 37.59743172 115.50875854 39.3812561 C115.48827265 40.79389174 115.48827265 40.79389174 115.46737289 42.23506546 C115.40289598 47.24636208 115.39830801 52.2578873 115.3828125 57.26953125 C115.35927548 63.63633598 115.31842941 70.00162142 115.21484375 76.36767578 C115.13253471 81.52234303 115.10940428 86.67439755 115.12466812 91.82966232 C115.11972382 93.78567127 115.09343207 95.74175523 115.04467392 97.69716263 C114.42908757 109.00995771 114.42908757 109.00995771 119.02203369 118.88348389 C121.04252148 120.86408664 123.07036481 122.41945533 125.37063599 124.10653687 C128.75282425 126.60823546 130.81850652 129.10598868 133.4375 132.375 C135.43415598 134.04567133 137.43401034 135.71252986 139.4375 137.375 C140.77577304 139.03770287 142.10939785 140.70416181 143.4375 142.375 C144.200625 142.973125 144.96375 143.57125 145.75 144.1875 C148.1278579 146.12296573 149.90070387 147.99031028 151.875 150.3125 C154.82727507 153.77290084 157.88291608 156.54749007 161.4375 159.375 C163.3125 161.0625 163.3125 161.0625 164.4375 162.375 C164.4375 163.035 164.4375 163.695 164.4375 164.375 C165.4275 164.705 166.4175 165.035 167.4375 165.375 C169.15625 167.15234375 169.15625 167.15234375 170.9375 169.3125 C173.06626021 171.88475192 174.62141145 173.49760763 177.4375 175.375 C177.4375 176.035 177.4375 176.695 177.4375 177.375 C178.4275 177.705 179.4175 178.035 180.4375 178.375 C180.4375 179.035 180.4375 179.695 180.4375 180.375 C181.4275 180.705 182.4175 181.035 183.4375 181.375 C185.62890625 183.66796875 185.62890625 183.66796875 188 186.5625 C188.78503906 187.50480469 189.57007813 188.44710937 190.37890625 189.41796875 C195.09799565 196.19662278 195.41898159 203.53945184 194.078125 211.51171875 C191.92440962 218.68591932 186.26700655 224.96999589 180.01171875 228.8984375 C173.35846088 231.89081185 165.97179387 233.02295764 158.99351513 230.48675066 C152.8140147 227.43952667 148.2476276 223.88395678 143.45529175 218.96714783 C142.7173526 218.23065854 141.97941345 217.49416926 141.21911252 216.73536211 C138.76927619 214.28440222 136.33772694 211.81609554 133.90576172 209.34741211 C132.14499888 207.57868401 130.38309715 205.81108906 128.62014771 204.04454041 C124.83596027 200.24796559 121.05941874 196.44402757 117.28945541 192.63334465 C111.83216676 187.11749542 106.35901431 181.6176035 100.88158979 176.12175757 C91.98478127 167.19454537 83.0977344 158.25768637 74.21826172 149.31323242 C73.68770456 148.77879851 73.1571474 148.2443646 72.61051275 147.69373573 C70.46077911 145.52825007 68.31108765 143.36272255 66.16144567 141.19714591 C60.24067376 135.2325252 54.31877583 129.26902345 48.39599609 123.30639648 C47.86548735 122.77231251 47.33497861 122.23822854 46.78839384 121.6879602 C37.93580471 112.77624692 29.07525672 103.87248402 20.20943654 94.97393423 C14.74812114 89.49162046 9.29432452 84.00202367 3.85011746 78.50271905 C-0.32138899 74.28993879 -4.50299114 70.08728196 -8.68831253 65.88822365 C-10.40106349 64.1663915 -12.11034538 62.4411005 -13.81586456 60.7121048 C-16.14614369 58.3506753 -18.48853607 56.00194305 -20.83425903 53.65586853 C-21.5045058 52.9705598 -22.17475256 52.28525107 -22.86530983 51.57917541 C-27.94753179 46.53590739 -32.94565538 42.81151573 -40.1875 41.9375 C-47.71621972 42.91344515 -52.01197804 47.40496981 -57.10165405 52.58030701 C-57.84025905 53.319171 -58.57886405 54.05803498 -59.33985102 54.81928879 C-61.81106336 57.2949233 -64.27138329 59.78110555 -66.73193359 62.26733398 C-68.50239193 64.04518751 -70.27354275 65.82235166 -72.04533386 67.59887695 C-75.85875695 71.42517207 -79.66766848 75.25587199 -83.47282028 79.09039116 C-88.9810761 84.64078853 -94.49955559 90.18093242 -100.02094515 95.71826149 C-108.98811685 104.71150141 -117.95003093 113.70995903 -126.90722656 122.71313477 C-127.44303634 123.25169029 -127.97884612 123.79024582 -128.53089257 124.34512121 C-134.50759762 130.35264176 -140.48330219 136.36115641 -146.45819092 142.3704834 C-148.62444666 144.54917788 -150.79072648 146.72784841 -152.95703125 148.90649414 C-153.49157788 149.44409056 -154.02612452 149.98168697 -154.57686953 150.53557419 C-163.49698822 159.50613796 -172.4249207 168.468882 -181.35884917 177.42569214 C-186.86528018 182.94691959 -192.36480661 188.47485377 -197.85556401 194.0116694 C-202.0651663 198.25550582 -206.28502559 202.48898891 -210.50873756 206.71878815 C-212.23759159 208.45353129 -213.96299462 210.19172166 -215.68465614 211.93360329 C-218.03705539 214.31266156 -220.40154384 216.67902776 -222.76937866 219.04270935 C-223.44624485 219.73327327 -224.12311105 220.42383718 -224.82048833 221.13532728 C-230.93967619 227.19630449 -237.71060458 231.38658216 -246.5 231.8125 C-254.16884008 231.72096212 -260.99088377 228.79193993 -266.546875 223.4765625 C-272.62958576 215.85811783 -274.59408807 208.03705732 -273.5625 198.375 C-270.78813868 188.90953197 -262.9666036 181.47897571 -256.11982727 174.67163086 C-255.04549817 173.59156344 -255.04549817 173.59156344 -253.94946545 172.48967648 C-251.57168269 170.10165553 -249.1869007 167.72075638 -246.80200195 165.33984375 C-245.08606551 163.61955573 -243.37054607 161.89885166 -241.65541077 160.17776489 C-237.49264238 156.00302701 -233.32519299 151.83300003 -229.15526352 147.66541791 C-225.76243794 144.27438161 -222.37139626 140.88157114 -218.98158836 137.48751831 C-218.49753789 137.00287265 -218.01348742 136.51822698 -217.51476875 136.01889509 C-216.53113513 135.03404961 -215.54750265 134.04920299 -214.56387129 133.06435525 C-205.35584695 123.84547492 -196.14133699 114.63309855 -186.92483052 105.42269933 C-178.51365379 97.01668862 -170.11071279 88.60250015 -161.71163318 80.18440378 C-153.0657084 71.51905519 -144.41418667 62.8593309 -135.7566697 54.20556355 C-130.90496042 49.35575961 -126.05543614 44.50381997 -121.21178627 39.64596558 C-116.65432469 35.07527307 -112.08897167 30.51255867 -107.51839256 25.95498276 C-105.84858991 24.28753589 -104.18130531 22.61756271 -102.51683044 20.94479752 C-74.85485527 -6.8449249 -37.00064101 -25.92165251 0 0 Z " fill="#010101" transform="translate(339.5625,93.625)"/>
</svg>
