<?xml version="1.0" encoding="UTF-8"?>
<svg version="1.1" xmlns="http://www.w3.org/2000/svg" width="600" height="600">
<path d="M0 0 C198 0 396 0 600 0 C600 198 600 396 600 600 C402 600 204 600 0 600 C0 402 0 204 0 0 Z " fill="#010101" transform="translate(0,0)"/>
<path d="M0 0 C198 0 396 0 600 0 C600 198 600 396 600 600 C402 600 204 600 0 600 C0 402 0 204 0 0 Z M59 25 C59 206.5 59 388 59 575 C217.73 575 376.46 575 540 575 C540 393.5 540 212 540 25 C381.27 25 222.54 25 59 25 Z " fill="#FEFEFE" transform="translate(0,0)"/>
<path d="M0 0 C144.54 0 289.08 0 438 0 C438 53.46 438 106.92 438 162 C293.46 162 148.92 162 0 162 C0 108.54 0 55.08 0 0 Z " fill="#FBFBFB" transform="translate(81,391)"/>
<path d="M0 0 C1.39545044 0.00040787 1.39545044 0.00040787 2.8190918 0.00082397 C62.67427051 0.08113631 62.67427051 0.08113631 88.125 13.1875 C88.125 13.8475 88.125 14.5075 88.125 15.1875 C88.96417969 15.55875 88.96417969 15.55875 89.8203125 15.9375 C98.22632473 20.49669307 103.90031525 27.81893047 108.125 36.1875 C108.69992187 37.27675781 109.27484375 38.36601563 109.8671875 39.48828125 C121.26339988 61.82730831 123.45421228 87.82402869 126.17431641 112.39306641 C126.28565918 113.38612793 126.39700195 114.37918945 126.51171875 115.40234375 C126.60670654 116.28011475 126.70169434 117.15788574 126.79956055 118.06225586 C127.02115796 120.2353783 127.02115796 120.2353783 128.125 122.1875 C130.63385755 139.49302796 130.44555494 157.19910467 130.38574219 174.64111328 C130.37416338 178.05530998 130.38106574 181.46919834 130.39288712 184.8833847 C130.40187551 188.20353088 130.39558077 191.52359512 130.390625 194.84375 C130.39467346 196.05317261 130.39872192 197.26259521 130.40289307 198.50866699 C130.31166696 215.00339709 130.31166696 215.00339709 125.125 221.1875 C124.5282496 222.47302305 123.94652966 223.76556731 123.375 225.0625 C119.55641734 232.80015434 112.0877004 237.36654332 104.125 240.1875 C98.52033252 241.52774657 92.82587752 242.37403372 87.125 243.1875 C92.6210087 250.28987889 98.11309542 257.32270951 104.15625 263.97265625 C107.22074167 267.42020938 110.10266571 271.01258778 113.00390625 274.59765625 C114.85551525 276.85846061 116.75289635 279.06048386 118.6875 281.25 C121.125 284.1875 121.125 284.1875 121.125 286.1875 C116.73288326 286.43689948 112.34462577 286.61710836 107.94750977 286.73681641 C106.45621914 286.786757 104.96540954 286.85474616 103.47583008 286.94189453 C91.17649209 287.64282898 91.17649209 287.64282898 86.28369141 284.171875 C83.97320584 281.62797289 82.03707646 279.03977454 80.125 276.1875 C79.09888516 274.90312601 78.06362225 273.625957 77.015625 272.359375 C76.13161562 271.22169336 75.2512709 270.08115266 74.375 268.9375 C73.48526364 267.78577129 72.5946451 266.63472352 71.703125 265.484375 C71.13706543 264.74719238 71.13706543 264.74719238 70.55957031 263.99511719 C70.08616211 263.39860352 69.61275391 262.80208984 69.125 262.1875 C68.20147484 260.67048996 68.20147484 260.67048996 67.2592926 259.12283325 C65.47172986 257.00663488 64.47385486 256.27018283 61.7522831 255.62513733 C58.66868474 255.40681243 55.63304676 255.3803346 52.54174805 255.41455078 C51.37058945 255.40392105 50.19943085 255.39329132 48.99278259 255.38233948 C45.12365987 255.35424616 41.25589718 255.36836053 37.38671875 255.3828125 C34.70338416 255.37156492 32.02016374 255.35797895 29.33686829 255.34127808 C22.99748118 255.30695208 16.65845487 255.30299814 10.31899339 255.31000316 C3.100042 255.31649768 -4.11865633 255.28906188 -11.33753264 255.25880075 C-26.18337263 255.19732665 -41.02902882 255.17838147 -55.875 255.1875 C-56.32637329 256.12323853 -56.32637329 256.12323853 -56.78686523 257.07788086 C-57.94345955 259.32022582 -59.23838791 260.89021538 -60.9375 262.75 C-68.74074953 270.95697045 -68.74074953 270.95697045 -74.89453125 280.29492188 C-76.33143079 282.92846016 -77.43131196 284.41492628 -79.875 286.1875 C-85.52635733 287.19809203 -91.03637676 286.94207926 -96.75 286.6875 C-98.3124092 286.64733857 -99.87491719 286.6108424 -101.4375 286.578125 C-105.25245004 286.49028602 -109.06263748 286.35245494 -112.875 286.1875 C-111.05915561 282.32773165 -108.59534157 279.32481766 -105.8125 276.125 C-104.80912516 274.95639043 -103.80653143 273.78710978 -102.8046875 272.6171875 C-102.30678711 272.03678711 -101.80888672 271.45638672 -101.29589844 270.85839844 C-99.30617984 268.51859877 -97.37079403 266.13652047 -95.4375 263.75 C-91.31312112 258.67499296 -87.06286016 253.71560942 -82.77172852 248.78149414 C-80.03530678 245.68532404 -80.03530678 245.68532404 -77.875 242.1875 C-79.1125 242.249375 -80.35 242.31125 -81.625 242.375 C-91.66975584 242.34341272 -102.28104388 239.43920986 -109.7265625 232.44921875 C-113.68248745 228.07145346 -113.68248745 228.07145346 -114.34375 225.03515625 C-114.5190625 224.42542969 -114.694375 223.81570313 -114.875 223.1875 C-115.865 222.8575 -116.855 222.5275 -117.875 222.1875 C-122.96419094 210.81166142 -122.15756236 197.78733343 -122.0625 185.625 C-122.05428814 183.78588971 -122.04631478 181.94677835 -122.03857422 180.10766602 C-121.8253678 141.32657423 -121.8253678 141.32657423 -118.875 122.1875 C-118.50437078 119.76917 -118.13460124 117.35071168 -117.765625 114.93212891 C-117.50476 113.22444142 -117.24173135 111.51708308 -116.9765625 109.81005859 C-116.23749922 104.95903196 -115.64673896 100.12543722 -115.20776367 95.23852539 C-113.47525565 76.05064279 -110.46896857 53.70162748 -99.875 37.1875 C-99.38386719 36.27613281 -98.89273438 35.36476562 -98.38671875 34.42578125 C-92.39130918 23.44108832 -85.07617135 15.82725061 -73.875 10.1875 C-72.41513672 9.39859375 -72.41513672 9.39859375 -70.92578125 8.59375 C-58.98508067 2.93543892 -46.11832713 2.46303963 -33.09960938 1.45385742 C-30.46296767 1.23606698 -27.85523493 0.94792891 -25.23046875 0.625 C-16.86299754 -0.22565451 -8.40071031 -0.00916502 0 0 Z " fill="#FBFBFB" transform="translate(295.875,59.8125)"/>
<path d="M0 0 C0.67571045 -0.00175232 1.3514209 -0.00350464 2.04760742 -0.00531006 C4.26719787 -0.00968742 6.48670765 -0.00680347 8.70629883 -0.00341797 C10.26320918 -0.00409258 11.82011943 -0.00506392 13.37702942 -0.00631714 C16.63759363 -0.00778888 19.89813039 -0.00565785 23.15869141 -0.00097656 C27.30965224 0.00469664 31.46054806 0.00145372 35.61150646 -0.00454903 C38.82797217 -0.00818913 42.04442286 -0.00699992 45.26088905 -0.00442123 C46.78968628 -0.00376023 48.31848494 -0.00455103 49.8472805 -0.00690079 C58.27120247 -0.0170014 66.59942129 0.14942392 74.97583008 1.12939453 C74.97583008 1.78939453 74.97583008 2.44939453 74.97583008 3.12939453 C75.9787207 3.09587891 76.98161133 3.06236328 78.01489258 3.02783203 C90.63593501 3.3514485 101.25424477 8.10160537 110.03833008 17.00439453 C118.37734927 26.93812655 122.68388734 39.11687349 125.96801758 51.48486328 C126.8411312 54.96954632 126.8411312 54.96954632 128.01098633 57.52001953 C129.4732706 61.47469927 129.95054987 65.52900032 130.53833008 69.69189453 C130.7322937 71.04250977 130.7322937 71.04250977 130.93017578 72.42041016 C132.34353414 82.46854712 133.0771203 92.35928599 133.22583008 102.50439453 C133.25809692 103.79023438 133.25809692 103.79023438 133.29101562 105.10205078 C133.31736869 110.16979471 132.91917946 113.79689428 129.97583008 118.12939453 C128.98583008 118.45939453 127.99583008 118.78939453 126.97583008 119.12939453 C126.97583008 119.78939453 126.97583008 120.44939453 126.97583008 121.12939453 C123.9734574 122.63058087 120.8867252 122.27376571 117.59379578 122.26983643 C116.43883715 122.27429311 116.43883715 122.27429311 115.26054603 122.27883983 C112.66652505 122.28754889 110.07255009 122.28903693 107.47851562 122.29052734 C105.62428691 122.29515397 103.77005916 122.30017842 101.91583252 122.30557251 C96.86825591 122.31871377 91.82069262 122.32514486 86.77310157 122.32958317 C83.62152218 122.33251119 80.46994646 122.33661549 77.31836891 122.34108734 C67.46350931 122.35476699 57.60865805 122.36443128 47.7537896 122.36828923 C36.36729526 122.37277089 24.9809209 122.39032186 13.59446305 122.41928983 C4.80035965 122.44088809 -3.99370994 122.45099253 -12.78783959 122.45233035 C-18.04348017 122.45337974 -23.29900803 122.45931587 -28.55462074 122.47714996 C-33.49825574 122.4935985 -38.4416929 122.49580181 -43.38534546 122.48701096 C-45.20060441 122.48623885 -47.01587386 122.49060613 -48.83110619 122.50046921 C-51.30803608 122.51313906 -53.78426006 122.50733921 -56.26118469 122.49688721 C-57.34037586 122.50897181 -57.34037586 122.50897181 -58.44136888 122.52130055 C-62.81210484 122.47812385 -65.53622044 121.78545418 -69.02416992 119.12939453 C-72.02798311 115.30304031 -72.40842362 112.36352886 -72.42260742 107.56298828 C-72.4286499 106.28206299 -72.43469238 105.0011377 -72.44091797 103.68139648 C-72.42864788 102.30988012 -72.41469888 100.93837787 -72.39916992 99.56689453 C-72.39551422 98.87365082 -72.39185852 98.1804071 -72.38809204 97.46615601 C-72.31599863 85.82853204 -71.43778556 74.53077471 -69.02416992 63.12939453 C-68.7844043 61.98857422 -68.54463867 60.84775391 -68.29760742 59.67236328 C-67.6246159 56.79181166 -66.86050924 53.96638871 -66.02416992 51.12939453 C-65.76120117 50.19611328 -65.49823242 49.26283203 -65.22729492 48.30126953 C-60.89935809 34.10259957 -54.13055212 19.20918118 -42.02416992 10.12939453 C-41.14760742 9.45650391 -40.27104492 8.78361328 -39.36791992 8.09033203 C-35.38127836 5.75237168 -32.04300127 5.12384769 -27.52416992 4.50439453 C-22.46525956 3.75756066 -17.87930327 2.79667933 -13.02416992 1.12939453 C-8.63549826 0.24332225 -4.47281963 0.00292931 0 0 Z " fill="#010101" transform="translate(270.024169921875,74.87060546875)"/>
<path d="M0 0 C0 39.93 0 79.86 0 121 C-9.57 121 -19.14 121 -29 121 C-29.33 97.9 -29.66 74.8 -30 51 C-31.32 55.29 -32.64 59.58 -34 64 C-35.57481291 68.08467098 -37.20726604 72.12313269 -38.90991211 76.15429688 C-42.40626463 84.62117944 -45.02819581 93.35098544 -47.73242188 102.09570312 C-48.29993164 103.8987793 -48.29993164 103.8987793 -48.87890625 105.73828125 C-49.2147876 106.82149658 -49.55066895 107.90471191 -49.89672852 109.02075195 C-50.98208705 111.9516283 -52.38535293 114.33667315 -54 117 C-54.495 118.98 -54.495 118.98 -55 121 C-60.28 121 -65.56 121 -71 121 C-71.39832031 119.83082031 -71.79664063 118.66164063 -72.20703125 117.45703125 C-72.74189141 115.90875185 -73.27706417 114.36058041 -73.8125 112.8125 C-74.07353516 112.04357422 -74.33457031 111.27464844 -74.60351562 110.48242188 C-74.86455078 109.73154297 -75.12558594 108.98066406 -75.39453125 108.20703125 C-75.74801636 107.17799683 -75.74801636 107.17799683 -76.10864258 106.12817383 C-76.96743815 103.91339688 -76.96743815 103.91339688 -78.42895508 101.73339844 C-80.38730593 98.32614185 -81.55247035 94.78233229 -82.7421875 91.05859375 C-82.99243683 90.29507095 -83.24268616 89.53154816 -83.5005188 88.74488831 C-84.29782277 86.31094201 -85.08720656 83.87453973 -85.875 81.4375 C-86.6560698 79.0256011 -87.43911197 76.6144283 -88.22805786 74.20509338 C-88.71700978 72.71161173 -89.2016972 71.21672292 -89.68087769 69.72007751 C-91.78844306 63.27709795 -94.36366572 57.32720227 -97 51 C-97.33 74.1 -97.66 97.2 -98 121 C-104.93 121 -111.86 121 -119 121 C-119 81.4 -119 41.8 -119 1 C-109.1 1 -99.2 1 -89 1 C-88.05125 3.495625 -87.1025 5.99125 -86.125 8.5625 C-85.82996582 9.33408447 -85.53493164 10.10566895 -85.23095703 10.90063477 C-84.03891135 14.05863018 -82.96645349 17.12928764 -82.1171875 20.40234375 C-81.17158259 23.44745608 -80.10843605 25.88460277 -78.65625 28.6953125 C-75.78639535 34.26038989 -73.63286276 39.99536779 -71.5 45.875 C-68.80211097 53.19736327 -66.06387851 60.46476861 -62.99609375 67.640625 C-61.55439197 71.05547942 -60.27196949 74.51882034 -59 78 C-58.67 78 -58.34 78 -58 78 C-56.68 73.38 -55.36 68.76 -54 64 C-53.34 64 -52.68 64 -52 64 C-51.63648438 62.23076172 -51.63648438 62.23076172 -51.265625 60.42578125 C-49.89194016 54.26227429 -48.13046643 48.21354268 -46.33349609 42.1628418 C-45.9465297 40.85282293 -45.56463376 39.54129494 -45.18798828 38.22827148 C-37.54091779 11.57038341 -37.54091779 11.57038341 -25.4375 4.50390625 C-15.90413983 -0.38748349 -12.43245506 0 0 0 Z " fill="#040404" transform="translate(257,402)"/>
<path d="M0 0 C8.18913242 -0.06801315 16.37804201 -0.12295203 24.56738186 -0.15543652 C28.37079372 -0.17103429 32.17400085 -0.19216348 35.97729492 -0.22631836 C39.65370229 -0.25912385 43.32991383 -0.2768972 47.00645638 -0.28463173 C48.40296571 -0.29013751 49.79946539 -0.30088814 51.19589043 -0.31719017 C63.66368241 -0.45683631 73.64602959 1.18507195 83 10 C89.26654051 19.08267815 90.99561142 27.04827434 90 38 C87.20717352 48.30456666 82.08435624 55.6423574 72.90234375 61 C70.65790054 62.17983052 68.39835233 63.17556639 66 64 C68.04078409 68.15747224 70.34582845 72.13143472 72.6875 76.125 C73.13593262 76.88981689 73.58436523 77.65463379 74.04638672 78.44262695 C76.91762284 83.2922712 79.97564199 87.91332637 83.28515625 92.4765625 C85.77774689 96.14447492 87.91361521 100.00378064 90.07275391 103.87280273 C92.49314208 108.18846784 95.11413492 112.28914834 97.96875 116.328125 C99 118 99 118 99 120 C87.78 120 76.56 120 65 120 C63.22625 116.74125 61.4525 113.4825 59.625 110.125 C55.66613833 102.86375229 51.69632057 95.60880233 47.6875 88.375 C47.28378174 87.64337646 46.88006348 86.91175293 46.46411133 86.15795898 C44.63518846 82.86124769 42.77635198 79.59865611 40.7890625 76.39453125 C39.81066406 74.80705078 39.81066406 74.80705078 38.8125 73.1875 C38.24144531 72.29417969 37.67039062 71.40085937 37.08203125 70.48046875 C36 68 36 68 35.90625 65.4140625 C37.51539003 61.86246058 40.33737653 60.81496992 43.6875 59.1875 C50.87155889 55.39983809 54.78231624 51.53617132 58.375 44.1875 C59.56290837 38.12916733 59.87294824 32.32786197 57.6875 26.5 C54.41766498 21.65579997 51.6863119 19.86714719 46 18 C39.07 17.505 39.07 17.505 32 17 C32 50.99 32 84.98 32 120 C22.1 120 12.2 120 2 120 C1.93210962 109.44670118 1.87711781 98.89354841 1.84456348 88.34008026 C1.82893574 83.43920246 1.80775041 78.53848237 1.77368164 73.63769531 C1.74098492 68.9044287 1.72312525 64.17131338 1.71536827 59.4379425 C1.70984324 57.63590617 1.69905428 55.83387772 1.68280983 54.03190613 C1.66089821 51.4996071 1.65803876 48.96792608 1.65942383 46.43554688 C1.648638 45.69754852 1.63785217 44.95955017 1.6267395 44.19918823 C1.6789874 35.31857694 5.03581703 29.07744534 11.1875 22.75 C15.02069836 20.3648988 18.55751813 20.19357219 23 20 C23 19.34 23 18.68 23 18 C15.74 17.67 8.48 17.34 1 17 C0.67 11.39 0.34 5.78 0 0 Z " fill="#040404" transform="translate(285,403)"/>
<path d="M0 0 C12.23880658 -0.02254946 24.47759947 -0.04091418 36.71642208 -0.05181217 C42.39876512 -0.05704139 48.08109327 -0.06413973 53.76342773 -0.07543945 C59.24229136 -0.08626696 64.72114062 -0.09227654 70.20001411 -0.09487724 C72.29529611 -0.09673174 74.39057728 -0.10035282 76.4858532 -0.10573006 C79.40977584 -0.11293868 82.33363833 -0.11399102 85.25756836 -0.11352539 C86.57062958 -0.1189183 86.57062958 -0.1189183 87.91021729 -0.12442017 C93.88594784 -0.11405216 93.88594784 -0.11405216 95 1 C95.07330331 3.86469325 95.09217831 6.69893674 95.0625 9.5625 C95.041875 12.346875 95.02125 15.13125 95 18 C84.44 18 73.88 18 63 18 C63 51.99 63 85.98 63 121 C52.77 121 42.54 121 32 121 C31.90943847 110.3335939 31.83613401 99.6674454 31.79275131 89.000741 C31.77192418 84.04714169 31.74369598 79.09382027 31.69824219 74.14038086 C31.65461008 69.35522691 31.63082627 64.57033937 31.62049103 59.78500175 C31.61313073 57.96423591 31.59875799 56.14348377 31.57707977 54.32283211 C31.36061583 35.38050503 31.36061583 35.38050503 37.67578125 26.6953125 C38.48595703 25.91800781 38.48595703 25.91800781 39.3125 25.125 C39.84488281 24.59132813 40.37726563 24.05765625 40.92578125 23.5078125 C43 22 43 22 50 19 C25.25 18.505 25.25 18.505 0 18 C0 12.06 0 6.12 0 0 Z " fill="#060606" transform="translate(382,402)"/>
<path d="M0 0 C0.76454498 -0.0033284 1.52908997 -0.0066568 2.31680298 -0.01008606 C3.93580524 -0.01515247 5.55481795 -0.01749447 7.17382812 -0.01733398 C9.64731143 -0.01951647 12.12034588 -0.03766373 14.59375 -0.05664062 C16.16666514 -0.05957543 17.7395824 -0.06155964 19.3125 -0.0625 C20.42049454 -0.07327827 20.42049454 -0.07327827 21.5508728 -0.08427429 C25.28009669 -0.06774121 28.17981033 -0.00517444 31.2890625 2.16796875 C35.46732677 7.01800342 35.99716148 10.96565933 35.9140625 17.10546875 C35.90693237 18.30707642 35.90693237 18.30707642 35.8996582 19.53295898 C35.74391949 23.97996136 35.4382916 27.20002858 32.4765625 30.73046875 C26.96407346 35.75295876 18.85717181 34.46469292 11.8659668 34.51806641 C10.27825245 34.53461355 8.69061223 34.56188783 7.10327148 34.60009766 C4.80413519 34.6550952 2.50673824 34.67677191 0.20703125 34.69140625 C-0.84796318 34.72541031 -0.84796318 34.72541031 -1.92427063 34.76010132 C-5.76307558 34.74378573 -8.22401797 34.1485096 -11.20581055 31.82275391 C-13.7109375 29.16796875 -13.7109375 29.16796875 -13.7109375 26.16796875 C-14.3709375 26.16796875 -15.0309375 26.16796875 -15.7109375 26.16796875 C-16.74435979 8.08307875 -16.74435979 8.08307875 -12.8359375 3.60546875 C-8.33072529 0.09140323 -5.53923053 0.00829957 0 0 Z " fill="#080808" transform="translate(366.7109375,232.83203125)"/>
<path d="M0 0 C0.75555679 -0.00619858 1.51111359 -0.01239716 2.28956604 -0.01878357 C3.88223996 -0.0258644 5.47498816 -0.02273799 7.06762695 -0.01000977 C9.49374808 0.00384823 11.91600168 -0.03022181 14.34179688 -0.06835938 C15.89453219 -0.0693108 17.44727229 -0.06745049 19 -0.0625 C19.71892929 -0.07575821 20.43785858 -0.08901642 21.17857361 -0.10267639 C26.8935434 0.00201989 29.21905274 1.63204314 33.06640625 5.56640625 C36.14999726 12.07323017 35.85300219 19.53377127 35.06640625 26.56640625 C33.7144346 29.53672314 32.68311735 30.51041896 30.06640625 32.56640625 C29.40640625 32.56640625 28.74640625 32.56640625 28.06640625 32.56640625 C28.06640625 33.22640625 28.06640625 33.88640625 28.06640625 34.56640625 C23.04940721 34.69043825 18.03330943 34.78094642 13.01513672 34.84106445 C11.30990036 34.8661367 9.60477071 34.90020389 7.89990234 34.94360352 C5.44211451 35.00458191 2.98575264 35.03268737 0.52734375 35.0546875 C-0.60738876 35.09339714 -0.60738876 35.09339714 -1.76504517 35.13288879 C-5.77841565 35.13499303 -8.2052623 34.74764541 -11.37768555 32.18457031 C-15.83121985 27.62255848 -16.22571019 23.88665774 -16.24609375 17.62890625 C-16.26285156 16.44425781 -16.27960938 15.25960937 -16.296875 14.0390625 C-15.7791307 9.08987236 -14.31619169 5.96463577 -10.81738281 2.42626953 C-7.18706596 0.08494259 -4.1858854 -0.0287972 0 0 Z " fill="#070707" transform="translate(213.93359375,232.43359375)"/>
<path d="M0 0 C17.84334204 0 17.84334204 0 23.5546875 5.49609375 C27.9521605 10.47741203 28.34874614 14.69520859 28.28125 21.08203125 C27.60007207 28.14925224 24.0326213 34.07179337 19 39 C16.70661326 40.60773161 14.29996973 41.9060762 11.8125 43.1875 C6.75103759 45.77343443 6.75103759 45.77343443 3 50 C2.6723603 52.40299777 2.6723603 52.40299777 2.68115234 55.11401367 C2.66128265 56.15486618 2.64141296 57.19571869 2.62094116 58.26811218 C2.60938995 59.39006485 2.59783875 60.51201752 2.5859375 61.66796875 C2.56657135 62.81791824 2.5472052 63.96786774 2.5272522 65.15266418 C2.46740239 68.83086699 2.42104894 72.509101 2.375 76.1875 C2.33682524 78.67905022 2.29777381 81.17058717 2.2578125 83.66210938 C2.16169638 89.77462194 2.07666462 95.88721421 2 102 C1.01 102.495 1.01 102.495 0 103 C0 69.01 0 35.02 0 0 Z " fill="#FBFBFB" transform="translate(317,420)"/>
<path d="M0 0 C14 0 14 0 17 2 C12.05 2 7.1 2 2 2 C2 35 2 68 2 102 C1.01 102.495 1.01 102.495 0 103 C0 69.01 0 35.02 0 0 Z " fill="#D1D1D1" transform="translate(317,420)"/>
<path d="M0 0 C18.48 0 36.96 0 56 0 C55.67 0.99 55.34 1.98 55 3 C51.08609399 4.47694566 48.00565371 5.60226148 44 4 C45.65 3.34 47.3 2.68 49 2 C24.745 1.505 24.745 1.505 0 1 C0 0.67 0 0.34 0 0 Z " fill="#212121" transform="translate(383,419)"/>
<path d="M0 0 C4.95 0 9.9 0 15 0 C14.67 0.99 14.34 1.98 14 3 C10.08609399 4.47694566 7.00565371 5.60226148 3 4 C4.65 3.34 6.3 2.68 8 2 C5.36 1.67 2.72 1.34 0 1 C0 0.67 0 0.34 0 0 Z " fill="#3C3C3C" transform="translate(424,419)"/>
<path d="M0 0 C-1.55603771 3.81936528 -3.95604931 6.26044438 -7 9 C-7.66 9 -8.32 9 -9 9 C-7.45665977 5.21180126 -4.44676575 0 0 0 Z " fill="#3C3C3C" transform="translate(228,86)"/>
<path d="M0 0 C0.66 0.33 1.32 0.66 2 1 C1.38125 1.433125 0.7625 1.86625 0.125 2.3125 C-2.2197245 3.99740483 -2.2197245 3.99740483 -4 7 C-4.66 5.68 -5.32 4.36 -6 3 C-4.03533587 1.93224776 -2.03144641 0.93446535 0 0 Z " fill="#B1B1B1" transform="translate(356,464)"/>
<path d="M0 0 C0.66 0.33 1.32 0.66 2 1 C-0.31 3.31 -2.62 5.62 -5 8 C-5.66 7.67 -6.32 7.34 -7 7 C-4.66666667 4.66666667 -2.33333333 2.33333333 0 0 Z " fill="#414141" transform="translate(299,424)"/>
</svg>
