<?xml version="1.0" encoding="iso-8859-1"?>
<!-- Uploaded to: SVG Repo, www.svgrepo.com, Generator: SVG Repo Mixer Tools -->
<!DOCTYPE svg PUBLIC "-//W3C//DTD SVG 1.1//EN" "http://www.w3.org/Graphics/SVG/1.1/DTD/svg11.dtd">
<svg fill="#000000" version="1.1" id="Capa_1" xmlns="http://www.w3.org/2000/svg" xmlns:xlink="http://www.w3.org/1999/xlink" 
	 width="800px" height="800px" viewBox="0 0 92.98 92.98" xml:space="preserve"
	>
<g>
	<g>
		<path d="M5.844,0v58.18V92.98h81.293V58.178V0H5.844z M83.416,89.262H9.563V61.897h73.853V89.262z M25.281,35.327
			c0.029-2.72,0.121-5.44,0.408-8.146c0.316-3.306,0.714-6.615,1.468-9.853c0.545-2.25,1.262-4.51,2.567-6.444
			c1.001-1.496,2.431-2.695,4.081-3.42c2.024-0.898,4.249-1.217,6.438-1.394c1.618-0.134,3.242-0.168,4.866-0.16
			c2.586,0.009,5.178-0.056,7.758,0.163c2.895,0.25,5.943,0.738,8.316,2.542c2.208,1.682,3.428,4.299,4.204,6.896
			c0.997,3.381,1.447,6.892,1.83,10.386c0.241,2.35,0.454,4.706,0.474,7.069c0.098,2.147,0.141,4.297,0.105,6.446
			c-0.116,2.019-0.505,4.221-2.018,5.689c-1.476,1.403-3.605,1.702-5.56,1.743c2.074,2.451,4.114,4.93,6.173,7.394
			c-1.847,0.004-3.693-0.002-5.54,0.003c-1.407-1.703-2.813-3.409-4.211-5.122c-6.741-0.006-13.483,0.004-20.226-0.004
			c-1.433,1.69-2.815,3.422-4.235,5.123c-1.853,0.004-3.706,0-5.56,0.002c2.077-2.452,4.114-4.94,6.185-7.397
			c-1.819-0.035-3.772-0.291-5.237-1.468c-1.292-1.038-1.912-2.671-2.155-4.268C25.122,39.194,25.219,37.251,25.281,35.327z"/>
		<path d="M31.448,29.1c10.07-0.002,20.139,0,30.208,0c0.815,0.014,1.672-0.409,2.012-1.178c0.332-0.676,0.236-1.445,0.236-2.172
			c-0.125-3.054-0.449-6.124-1.313-9.064c-0.542-1.802-1.271-3.586-2.448-5.069c-0.874-1.112-2.066-2.019-3.457-2.357
			c-4.134-0.865-8.38-0.836-12.582-0.786c-2.482,0.039-4.965,0.255-7.407,0.714c-0.953,0.172-1.852,0.595-2.599,1.207
			c-1.608,1.31-2.585,3.216-3.277,5.134c-1.167,3.359-1.598,6.935-1.677,10.475c0.006,0.679-0.081,1.41,0.274,2.025
			C29.803,28.753,30.649,29.127,31.448,29.1z"/>
		<path d="M37.909,37.301c0.044-1.041-0.818-2.026-1.875-2.046c-1.642-0.005-3.284-0.014-4.925,0.004
			c-0.75,0.034-1.438,0.56-1.702,1.259c-0.182,0.503-0.123,1.047-0.135,1.57c0.007,0.598-0.061,1.245,0.262,1.782
			c0.345,0.641,1.062,1.036,1.787,1.017c1.531,0.002,3.063,0.005,4.594-0.002c0.839,0.014,1.632-0.573,1.89-1.367
			C38.006,38.8,37.869,38.038,37.909,37.301z"/>
		<path d="M63.761,37.423c0.051-0.751-0.319-1.528-0.981-1.905c-0.61-0.383-1.354-0.243-2.035-0.266
			c-1.338,0.021-2.683-0.046-4.019,0.032c-0.922,0.164-1.647,1.063-1.583,2.004c0.04,0.746-0.09,1.512,0.092,2.243
			c0.254,0.773,1.012,1.351,1.832,1.351c1.53,0.015,3.061,0.003,4.59,0.006c0.694,0.035,1.39-0.313,1.769-0.899
			C63.939,39.233,63.707,38.275,63.761,37.423z"/>
		<path d="M22.648,71.688c1.582,4.17,3.096,8.363,4.651,12.543c0.844,0.008,1.688,0.009,2.534-0.001
			c1.497-4.142,2.97-8.291,4.479-12.429c0.064,0.356,0.057,0.722,0.052,1.084c-0.004,3.781,0.003,7.562-0.004,11.346
			c1.609,0.008,3.217,0.008,4.826,0c-0.006-6.827-0.006-13.654,0-20.482c-0.786-0.059-1.583-0.074-2.357,0.104
			c-1.331,0.262-2.566,1.013-3.37,2.111c-0.846,1.1-1.117,2.488-1.591,3.762c-0.85,2.554-1.739,5.096-2.569,7.654
			c-1.78-4.506-3.538-9.021-5.3-13.533c-1.647,0-3.294,0-4.942,0c-0.002,6.797,0,13.593,0,20.391
			c1.193-0.001,2.387,0.001,3.58-0.001C22.642,80.053,22.615,75.87,22.648,71.688z"/>
		<path d="M48.631,66.879c-1.412,0.193-2.88,0.807-3.658,2.062c-0.675,1.052-0.653,2.348-0.631,3.549
			c0.002,3.891-0.001,7.78,0.002,11.67c1.692,0.002,3.387,0.002,5.079,0c0.003-5.771,0-11.542,0.002-17.312
			c1.134,0.047,2.375-0.191,3.401,0.424c0.93,0.556,1.248,1.709,1.238,2.729c0.047,1.023-0.296,2.076-1.009,2.824
			c-0.765,0.836-1.823,1.289-2.81,1.804c-0.305,0.113-0.289,0.514-0.139,0.745c1.637,2.933,3.309,5.843,4.932,8.779
			c1.91,0.015,3.816,0.011,5.726,0.004c-1.921-3.133-3.911-6.222-5.819-9.362c1.303-0.395,2.492-1.209,3.26-2.345
			c1.07-1.536,1.328-3.636,0.554-5.354c-0.507-1.158-1.397-2.207-2.601-2.672c-1.668-0.678-3.508-0.597-5.274-0.599
			c-2.333,0-4.668,0-7.003,0c0.08,1.001,0.165,2.002,0.213,3.007C45.604,66.879,47.119,66.805,48.631,66.879z"/>
		<path d="M70.056,66.795c-1.452,0.223-3.007,0.852-3.755,2.198c-0.637,1.054-0.564,2.317-0.553,3.499c0,3.891,0,7.778,0.003,11.668
			c1.745,0.004,3.487,0,5.231,0.002c0-5.788,0-11.572,0-17.361c1.789,0,3.575,0,5.362,0c0.004-0.99,0.001-1.982,0.002-2.975
			c-5.319,0.001-10.638-0.005-15.958,0.002c0.004,0.99,0,1.98,0.003,2.971C63.615,66.797,66.836,66.807,70.056,66.795z"/>
	</g>
</g>
</svg>